The Mark 2012 DvdRip Xvid AC3 SuReNo

 
http://www.imdb.com/title/tt2111457/


Director:
James Chankin

Writers:
John Patus, Leland Jourdan

Stars:
Craig Sheffer, Eric Roberts and Gary Daniels

Genres:
Action


Plot: On a flight from Bangkok to Berlin is Chad Turner (Craig Sheffer), a former soldier who has abandoned his faith, is now the worlds first test subject for 
the secret technology ΓÇö a biometric microchip implanted in his arm capable of monitoring all personal information. 


Format : AVI
Format/Info : Audio Video Interleave
File size : 1 000 MiB
Duration : 1h 35mn
Overall bit rate : 1 471 Kbps
Writing application : VirtualDubMod 1.5.4.1 (build 2178/release)
Writing library : VirtualDubMod build 2178/release

Video
ID : 0
Format : MPEG-4 Visual
Format profile : Advanced Simple@L5
Format settings, BVOP : No
Format settings, QPel : No
Format settings, GMC : No warppoints
Format settings, Matrix : Custom
Codec ID : XVID
Codec ID/Hint : XviD
Duration : 1h 35mn
Bit rate : 1 016 Kbps
Width : 624 pixels
Height : 320 pixels
Display aspect ratio : 1.950
Frame rate : 23.976 fps
Color space : YUV
Chroma subsampling : 4:2:0
Bit depth : 8 bits
Scan type : Progressive
Compression mode : Lossy
Bits/(Pixel*Frame) : 0.212
Stream size : 691 MiB (69%)
Writing library : XviD 1.2.1 (UTC 2008-12-04)

Audio
ID : 1
Format : AC-3
Format/Info : Audio Coding 3
Mode extension : CM (complete main)
Format settings, Endianness : Big
Codec ID : 2000
Duration : 1h 35mn
Bit rate mode : Constant
Bit rate : 448 Kbps
Channel(s) : 6 channels
Channel positions : Front: L C R, Side: L R, LFE
Sampling rate : 48.0 KHz
Bit depth : 16 bits
Compression mode : Lossy
Stream size : 305 MiB (30%)
Alignment : Split accross interleaves
Interleave, duration : 96 ms (2.30 video frames)
Interleave, preload duration : 96 ms
Language : English


Poster:

 
http://imgon.net/di-VK27.jpg


Screenshots:

 
http://imgon.net/di-9IYS.png

 
http://imgon.net/di-F4GM.png

 
http://imgon.net/di-610P.png


ENJOY!